<svg width="176" height="20" viewBox="0 0 176 20" fill="none" xmlns="http://www.w3.org/2000/svg">
<path d="M3.5707 0V19.7018H0V0H3.5707Z" fill="black"/>
<path d="M10.1583 19.7018H6.34701L13.2863 0H17.6943L24.6432 19.7018H20.8319L15.5673 4.0404H15.4133L10.1583 19.7018ZM10.2834 11.9769H20.6779V14.8437H10.2834V11.9769Z" fill="#4F4F4F"/>
<path d="M27.4292 0H31.7987L37.6504 14.2761H37.8814L43.7331 0H48.1026V19.7018H44.6763V6.16643H44.4934L39.046 19.6441H36.4858L31.0384 6.13757H30.8555V19.7018H27.4292V0Z" fill="#4F4F4F"/>
<path d="M52.1807 19.7018V0H59.7263C61.1507 0 62.3345 0.224467 63.2777 0.6734C64.2273 1.11592 64.9364 1.72198 65.4047 2.49158C65.8796 3.26118 66.117 4.1334 66.117 5.10823C66.117 5.90989 65.963 6.59612 65.655 7.16691C65.347 7.73128 64.9332 8.18983 64.4134 8.54257C63.8937 8.8953 63.313 9.14863 62.6714 9.30255V9.49495C63.3708 9.53343 64.0413 9.74828 64.6829 10.1395C65.331 10.5243 65.8603 11.0694 66.271 11.7749C66.6816 12.4804 66.8869 13.3333 66.8869 14.3338C66.8869 15.3535 66.6399 16.2706 66.1458 17.0851C65.6518 17.8932 64.9075 18.5313 63.9129 18.9995C62.9184 19.4677 61.6672 19.7018 60.1594 19.7018H52.1807ZM55.7514 16.7196H59.5915C60.8876 16.7196 61.8212 16.4727 62.3923 15.9788C62.9697 15.4786 63.2585 14.8373 63.2585 14.0548C63.2585 13.4712 63.1141 12.9453 62.8254 12.4772C62.5366 12.0026 62.126 11.6306 61.5934 11.3612C61.0609 11.0855 60.4257 10.9476 59.6878 10.9476H55.7514V16.7196ZM55.7514 8.37903H59.2836C59.8995 8.37903 60.4545 8.2668 60.9486 8.04233C61.4427 7.81145 61.8308 7.48757 62.1132 7.07071C62.4019 6.64743 62.5463 6.14719 62.5463 5.56999C62.5463 4.8068 62.2768 4.17829 61.7378 3.68446C61.2053 3.19064 60.4128 2.94372 59.3605 2.94372H55.7514V8.37903Z" fill="#717171"/>
<path d="M72.7142 19.7018H68.9029L75.8422 0H80.2502L87.1991 19.7018H83.3878L78.1232 4.0404H77.9692L72.7142 19.7018ZM72.8393 11.9769H83.2338V14.8437H72.8393V11.9769Z" fill="#717171"/>
<path d="M89.985 19.7018V0H93.5557V9.05243H93.7964L101.486 0H105.846L98.2236 8.84079L105.914 19.7018H101.621L95.7405 11.2554L93.5557 13.8336V19.7018H89.985Z" fill="#717171"/>
<path d="M120.942 0H124.513V12.8716C124.513 14.2825 124.179 15.5235 123.512 16.5945C122.851 17.6655 121.92 18.5025 120.721 19.1053C119.521 19.7018 118.119 20 116.515 20C114.904 20 113.499 19.7018 112.299 19.1053C111.099 18.5025 110.169 17.6655 109.508 16.5945C108.847 15.5235 108.517 14.2825 108.517 12.8716V0H112.087V12.5734C112.087 13.3943 112.267 14.1254 112.626 14.7667C112.992 15.408 113.505 15.9115 114.166 16.2771C114.827 16.6362 115.61 16.8158 116.515 16.8158C117.419 16.8158 118.202 16.6362 118.863 16.2771C119.53 15.9115 120.044 15.408 120.403 14.7667C120.762 14.1254 120.942 13.3943 120.942 12.5734V0Z" fill="#717171"/>
<path d="M128.583 19.7018V0H132.154V16.71H140.835V19.7018H128.583Z" fill="#717171"/>
<path d="M146.117 19.9134C145.533 19.9134 145.032 19.7082 144.615 19.2977C144.198 18.8873 143.993 18.387 143.999 17.797C143.993 17.2198 144.198 16.726 144.615 16.3155C145.032 15.9051 145.533 15.6999 146.117 15.6999C146.681 15.6999 147.172 15.9051 147.589 16.3155C148.013 16.726 148.228 17.2198 148.234 17.797C148.228 18.1882 148.125 18.5442 147.926 18.8648C147.734 19.1855 147.477 19.442 147.156 19.6344C146.842 19.8204 146.495 19.9134 146.117 19.9134Z" fill="#861515"/>
<path d="M155.746 0V19.7018H152.175V0H155.746Z" fill="#CACACA"/>
<path d="M176 0V19.7018H172.824L163.536 6.28187H163.373V19.7018H159.802V0H162.997L172.275 13.4295H172.449V0H176Z" fill="#CACACA"/>
</svg>
